<?xml version="1.0" standalone="no"?>
<!DOCTYPE svg PUBLIC "-//W3C//DTD SVG 20010904//EN"
 "http://www.w3.org/TR/2001/REC-SVG-20010904/DTD/svg10.dtd">
<svg version="1.0" xmlns="http://www.w3.org/2000/svg"
 width="1000.000000pt" height="1000.000000pt" viewBox="0 0 1000.000000 1000.000000"
 preserveAspectRatio="xMidYMid meet">
<metadata>
Created by potrace 1.11, written by Peter Selinger 2001-2013
</metadata>
<g transform="translate(0.000000,1000.000000) scale(0.100000,-0.100000)"
fill="#000000" stroke="none">
<path d="M0 5000 l0 -5000 5000 0 5000 0 0 5000 0 5000 -5000 0 -5000 0 0
-5000z m1850 933 l555 -873 3 875 2 875 435 0 435 0 0 -1755 0 -1755 -381 2
-381 3 -556 874 -557 873 -3 -876 -2 -876 -435 0 -435 0 0 1755 0 1755 382 -2
382 -3 556 -872z m6426 866 c109 -15 249 -52 348 -92 306 -123 563 -406 660
-727 59 -196 61 -228 61 -915 0 -477 -3 -651 -13 -715 -47 -292 -149 -504
-337 -695 -128 -131 -270 -217 -458 -280 -206 -69 -190 -68 -1039 -72 l-768
-4 0 1755 0 1756 734 0 c471 0 762 -4 812 -11z m-2886 -1054 l0 -375 375 0
375 0 0 -380 0 -380 -375 0 -375 0 0 -375 0 -375 -380 0 -380 0 0 375 0 375
-375 0 -375 0 0 380 0 380 375 0 375 0 0 375 0 375 380 0 380 0 0 -375z"/>
<path d="M7600 5055 l0 -985 228 0 c318 0 404 22 509 129 62 62 98 129 118
214 44 192 45 1091 0 1283 -28 123 -97 222 -196 281 -92 55 -144 63 -416 63
l-243 0 0 -985z"/>
</g>
</svg>
